# AST/ASF file generated using VICON BodyLanguage
# -----------------------------------------------
:version 1.10
:name VICON
:units
  mass 1.0
  length 0.45
  angle deg
:documentation
   .ast/.asf automatically generated from VICON data using
   VICON BodyBuilder and BodyLanguage model FoxedUp or BRILLIANT.MOD
:root
   order TX TY TZ RX RY RZ
   axis XYZ
   position 0 0 0  
   orientation 0 0 0 
:bonedata
  begin
     id 1 
     name lhipjoint
     direction 0.560651 -0.75055 0.34978 
     length 2.44936 
     axis 0 0 0  XYZ
  end
  begin
     id 2 
     name lfemur
     direction 0.34202 -0.939693 0  
     length 7.42139  
     axis 0 0 20  XYZ
    dof rx ry rz
    limits (-160.0 20.0)
           (-70.0 70.0)
           (-60.0 70.0)
  end
  begin
     id 3 
     name ltibia
     direction 0.34202 -0.939693 0   
     length 7.75674   
     axis 0 0 20   XYZ
    dof rx
    limits (-10.0 170.0)
  end
  begin
     id 4 
     name lfoot
     direction 0.0925879 -0.254383 0.962661   
     length 2.38688   
     axis -90 7.62852e-016 20   XYZ
    dof rx rz
    limits (-45.0 90.0)
           (-70.0 20.0)
  end
  begin
     id 5 
     name ltoes
     direction 1.53567e-011 -4.21973e-011 1   
     length 1.19228   
     axis -90 7.62852e-016 20   XYZ
    dof rx
    limits (-90.0 20.0)
  end
  begin
     id 6 
     name rhipjoint
     direction -0.540087 -0.762838 0.355506   
     length 2.4099  
     axis 0 0 0  XYZ 
  end
  begin
     id 7 
     name rfemur
     direction -0.34202 -0.939693 0   
     length 7.70794   
     axis 0 0 -20   XYZ
    dof rx ry rz
    limits (-160.0 20.0)
           (-70.0 70.0)
           (-70.0 60.0)
  end
  begin
     id 8 
     name rtibia
     direction -0.34202 -0.939693 0   
     length 7.66106   
     axis 0 0 -20   XYZ
    dof rx
    limits (-10.0 170.0)
 end
 begin
     id 9 
     name rfoot
     direction -0.0830975 -0.228308 0.970036   
     length 2.4989  
     axis -90 -7.62852e-016 -20   XYZ
    dof rx rz
    limits (-45.0 90.0)
           (-20.0 70.0)
  end
  begin
     id 10 
     name rtoes
     direction -1.53517e-011 -4.21842e-011 1   
     length 1.2498   
     axis -90 -7.62852e-016 -20   XYZ
    dof rx
    limits (-90.0 20.0)
  end
  begin
     id 11 
     name lowerback
     direction 0.0266356 0.99402 -0.105896   
     length 2.1545   
     axis 0 0 0   XYZ
    dof rx ry rz
    limits (-20.0 45.0)
           (-30.0 30.0)
           (-30.0 30.0)
  end
  begin
     id 12 
     name upperback
     direction 0.0130547 0.999192 0.0380027   
     length 2.1434   
     axis 0 0 0   XYZ
    dof rx ry rz
    limits (-20.0 45.0)
           (-30.0 30.0)
           (-30.0 30.0)
  end
  begin
     id 13 
     name thorax
     direction 0.000590299 0.996288 0.0860764   
     length 2.19049   
     axis 0 0 0   XYZ
    dof rx ry rz
    limits (-20.0 45.0)
           (-30.0 30.0)
           (-30.0 30.0)
  end
  begin
     id 14 
     name lowerneck
     direction -0.0432125 0.978219 0.203028   
     length 1.62441   
     axis 0 0 0   XYZ
    dof rx ry rz
    limits (-20.0 45.0)
           (-30.0 30.0)
           (-30.0 30.0)
  end
  begin
     id 15 
     name upperneck
     direction -0.0192309 0.991699 -0.127138   
     length 1.66666   
     axis 0 0 0   XYZ
    dof rx ry rz
    limits (-20.0 45.0)
           (-30.0 30.0)
           (-30.0 30.0)
  end
  begin
     id 16
     name head
     direction -0.00434499 0.997882 -0.0649107  
     length 1.67142  
     axis 0 0 0   XYZ
    dof rx ry rz
    limits (-20.0 45.0)
           (-30.0 30.0)
           (-30.0 30.0)
  end
  begin
     id 17 
     name lclavicle
     direction 0.970351 0.240904 -0.0196058  
     length 4.04862  
     axis 0 0 0   XYZ
    dof ry rz
    limits (-20.0 10.0)
           (0.0 20.0)
  end
  begin
     id 18 
     name lhumerus
     direction 1 -4.4896e-011 -1.40911e-018   
     length 5.58345   
     axis 180 -30 -90   XYZ
    dof rx ry rz
    limits (-60.0 90.0)
           (-90.0 90.0)
           (-90.0 90.0)
  end
  begin
     id 19
     name lradius
     direction 1 -4.48968e-011 5.88912e-028   
     length 3.71087   
     axis 180 -30 -90   XYZ
    dof rx
    limits (-10.0 170.0)
  end
  begin
     id 20
     name lwrist
     direction 1 -4.48955e-011 -8.83775e-028   
     length 1.85544   
     axis 5.52448e-016 90 90   XYZ
    dof ry
    limits (-180.0 0.0)
 end
  begin
     id 21 
     name lhand
     direction 1 -4.49035e-011 -1.76755e-027   
     length 0.562322   
     axis 1.12785e-015 90 90   XYZ
    dof rx rz
    limits (-90.0 90.0)
           (-45.0 45.0)
  end
  begin
     id 22 
     name lfingers
     direction 1 -4.48824e-011 -3.5351e-027   
     length 0.453359   
     axis 2.2557e-015 90 90   XYZ
    dof rx
    limits (0.0 90.0)
  end
  begin
     id 23
     name lthumb
     direction 0.707107 -6.34888e-011 0.707107   
     length 0.650935   
     axis -90 45 2.85299e-015   XYZ
    dof rx rz
    limits (-45.0 45.0)
           (-45.0 45.0)
  end
  begin
     id 24 
     name rclavicle
     direction -0.96165 0.268562 -0.0557131   
     length 4.05446  
     axis 0 0 0   XYZ 
    dof ry rz
    limits (-10.0 20.0)
           (-20.0 0.0)
  end
  begin
     id 25 
     name rhumerus
     direction -1 -4.48957e-011 -3.36329e-027  
     length 5.20357   
     axis 180 30 90   XYZ
    dof rx ry rz
    limits (-90.0 60.0)
           (-90.0 90.0)
           (-90.0 90.0)
  end
  begin
     id 26 
     name rradius
     direction -1 -4.48974e-011 4.51441e-027   
     length 3.64937   
     axis 180 30 90   XYZ
    dof rx
    limits (-10.0 170.0)
  end
  begin
     id 27 
     name rwrist
     direction -1 -4.4896e-011 -8.83775e-028   
     length 1.82468   
     axis 5.52448e-016 -90 -90   XYZ
    dof ry
    limits (-180.0 0.0)
  end
  begin
     id 28
     name rhand
     direction -1 -4.48996e-011 -1.76755e-027   
     length 0.617996   
     axis 1.12785e-015 -90 -90   XYZ
    dof rx rz
    limits (-90.0 90.0)
           (-45.0 45.0)
  end
  begin
     id 29
     name rfingers
     direction -1 -4.48957e-011 -3.5351e-027   
     length 0.498244   
     axis 2.2557e-015 -90 -90   XYZ
    dof rx
    limits (0.0 90.0)
  end
  begin
     id 30
     name rthumb
     direction -0.707107 -6.34931e-011 0.707107   
     length 0.715382   
     axis -90 -45 -2.85299e-015   XYZ
    dof rx rz
    limits (-45.0 45.0)
           (-45.0 45.0)
  end
:hierarchy
  begin
    root lhipjoint rhipjoint lowerback
    lhipjoint lfemur
    lfemur ltibia
    ltibia lfoot
    lfoot ltoes
    rhipjoint rfemur
    rfemur rtibia
    rtibia rfoot
    rfoot rtoes
    lowerback upperback
    upperback thorax
    thorax lowerneck lclavicle rclavicle
    lowerneck upperneck
    upperneck head
    lclavicle lhumerus
    lhumerus lradius
    lradius lwrist
    lwrist lhand lthumb
    lhand lfingers
    rclavicle rhumerus
    rhumerus rradius
    rradius rwrist
    rwrist rhand rthumb
    rhand rfingers
  end

#!OML:ASF H:\ManfredETheater\Project 1\Capture day 2\Session 1\Male1.ASF
:FULLY-SPECIFIED
:DEGREES
111
root -1.37898 10.7481 0.597599 -38.7784 -22.9861 204.871
lowerback 32.5177 2.93224 12.0072
upperback 9.88904 10.1188 13.9696
thorax -6.46711 4.9417 4.98497
lowerneck -15.3842 -3.28141 -2.90857
upperneck 18.0719 -6.89854 14.1749
head 8.84544 -2.09829 4.45626
rclavicle -3.49861e-014 -3.81667e-014
rhumerus 64.3413 10.9083 -39.2993
rradius 67.475
rwrist 29.6471
rhand -65.4663 105.345
rfingers 7.12502
rthumb -37.3386 -228.679
lclavicle -3.49861e-014 -3.81667e-014
lhumerus 3.80614 -21.1236 43.2728
lradius 126.066
lwrist -44.322
lhand 20.5024 -51.2405
lfingers 7.12502
lthumb 45.0028 -27.742
rfemur -58.1164 -44.9122 2.33033
rtibia 102.359
rfoot -6.98641 -1.35543
rtoes 5.72219
lfemur -78.7691 15.5676 -15.4391
ltibia 101.645
lfoot 27.4891 -9.9911
ltoes 1.82343
112
root -1.60235 10.4699 0.208991 -37.6633 -24.0149 205.699
lowerback 32.9651 2.9271 12.3824
upperback 10.2732 10.2334 14.0675
thorax -6.16759 4.98596 4.87259
lowerneck -15.3472 -3.29613 -3.03642
upperneck 18.7187 -6.95691 14.0866
head 9.06405 -2.12407 4.4562
rclavicle 3.89618e-014 7.95139e-014
rhumerus 64.9724 10.6569 -38.0069
rradius 66.9495
rwrist 28.9656
rhand -65.6209 102.459
rfingers 7.12502
rthumb -37.4848 -231.604
lclavicle 3.89618e-014 7.95139e-014
lhumerus 2.67762 -22.0922 47.2291
lradius 125.767
lwrist -46.7171
lhand 22.6312 -48.5412
lfingers 7.12502
lthumb 46.9779 -25.8653
rfemur -59.8037 -45.3261 2.19357
rtibia 102.548
rfoot -6.79614 -2.1425
rtoes 6.6601
lfemur -78.7682 16.627 -15.5829
ltibia 102.69
lfoot 27.3611 -10.3196
ltoes 1.07193
113
root -1.81908 10.1874 -0.184551 -36.6022 -25.0421 206.616
lowerback 33.4889 2.93701 12.5293
upperback 10.7132 10.2787 14.1229
thorax -5.86334 4.98989 4.84958
lowerneck -15.4803 -3.30535 -3.1611
upperneck 19.3899 -7.01599 14.0086
head 9.32593 -2.14181 4.45974
rclavicle 2.3059e-014 1.49486e-013
rhumerus 65.7164 10.3109 -36.6137
rradius 66.4869
rwrist 28.2143
rhand -65.7899 98.2203
rfingers 7.12502
rthumb -37.6444 -235.885
lclavicle 2.3059e-014 1.49486e-013
lhumerus 1.62988 -22.7132 51.0821
lradius 125.168
lwrist -49.1639
lhand 21.8186 -43.8501
lfingers 7.12502
lthumb 46.2253 -20.85
rfemur -61.5554 -45.587 2.14295
rtibia 102.616
rfoot -6.74378 -3.0517
rtoes 7.57745
lfemur -78.7316 17.7411 -15.7683
ltibia 103.637
lfoot 27.1306 -10.7483
ltoes -0.127267
114
root -2.02885 9.89957 -0.582951 -35.5911 -26.0786 207.602
lowerback 34.1303 2.9636 12.4225
upperback 11.1599 10.2608 14.1393
thorax -5.63011 4.94924 4.92219
lowerneck -15.6369 -3.29462 -3.27699
upperneck 20.0752 -7.05866 13.9646
head 9.59963 -2.14752 4.47715
rclavicle 4.57205e-014 -2.8625e-014
rhumerus 66.4894 9.90509 -35.1855
rradius 66.1095
rwrist 27.4424
rhand -65.9478 92.4037
rfingers 7.12502
rthumb -37.7936 -241.741
lclavicle 4.57205e-014 -2.8625e-014
lhumerus 0.619595 -22.9899 54.7822
lradius 124.35
lwrist -51.1943
lhand 19.0726 -38.8634
lfingers 7.12502
lthumb 43.6702 -14.8586
rfemur -63.3355 -45.6961 2.18475
rtibia 102.576
rfoot -6.81652 -4.01302
rtoes 8.38072
lfemur -78.6648 18.9092 -15.9817
ltibia 104.495
lfoot 26.851 -11.3123
ltoes -1.65195
115
root -2.2316 9.60412 -0.986379 -34.625 -27.1415 208.629
lowerback 34.8824 3.01297 12.0747
upperback 11.6084 10.1911 14.1347
thorax -5.47039 4.86802 5.0997
lowerneck -15.8125 -3.25174 -3.39683
upperneck 20.7408 -7.07188 14.0017
head 9.87413 -2.13212 4.52921
rclavicle 5.45167e-014 -5.725e-014
rhumerus 67.2255 9.41876 -33.7795
rradius 65.8329
rwrist 26.7672
rhand -66.0499 -85.9266
rfingers 7.12502
rthumb -37.8901 -248.244
lclavicle 5.45167e-014 -5.725e-014
lhumerus -0.249103 -22.8968 58.2259
lradius 123.412
lwrist -52.4167
lhand 15.4782 -34.2856
lfingers 7.12502
lthumb 40.3016 -9.15123
rfemur -65.075 -45.6269 2.31294
rtibia 102.436
rfoot -6.97844 -4.95956
rtoes 9.01142
lfemur -78.5591 20.134 -16.2043
ltibia 105.273
lfoot 26.5134 -12.0132
ltoes -3.34837
